<?xml version="1.0" encoding="UTF-8"?>
<svg xmlns="http://www.w3.org/2000/svg" width="1600" height="176" viewBox="0 0 1600 176" role="img" aria-labelledby="title description">
  <title id="title">ALTO JSON Patch</title>
  <desc id="description">Install with composer require alto/json-patch.</desc>
  <rect width="1600" height="176" rx="16" fill="#050608"/>
  <g aria-hidden="true">
    <path id="alto" fill="#f7f5f0" transform="translate(58 70.45) scale(0.39)" d="m.1 87 44-84 44 84h-8.7L44.1 20.2 8.7 86.9zM110.8 3h7.9v76h52v8h-59.9zM174.3 3h72.2V11h-31.8v76h-7.9V11h-32.5zM296.8 3.3c10.2-1.7 20.7.3 29.5 5.8L322 16a34.1 34.1 0 1 0 11 10.9l6.7-4.3a42.3 42.3 0 1 1-43-19.3"/>
    <path d="M201.25 67.75 211.75 108.25" fill="none" stroke="#27bdff" stroke-width="2.55" stroke-linecap="round"/>
    <path id="package-name" fill="#f7f5f0" transform="translate(226.7968 104.38)" d="M 8.658 0.234 Q 5.9904 0.234 3.6738 -0.9828 Q 1.3572 -2.1996 -0.0468 -4.446 L 1.404 -6.0372 Q 4.1652 -1.9188 8.658 -1.9188 Q 15.1632 -1.9188 15.1632 -9.6408 L 15.1632 -30.6072 L 3.0888 -30.6072 L 3.0888 -32.76 L 17.55 -32.76 L 17.55 -9.6408 Q 17.55 0.234 8.658 0.234 Z M 40.0496 0.234 Q 36.3992 0.234 33.1466 -1.0062 Q 29.894 -2.2464 28.1156 -4.212 L 29.192 -5.9904 Q 30.8768 -4.2588 33.7784 -3.0654 Q 36.68 -1.872 40.0028 -1.872 Q 44.9168 -1.872 47.1866 -3.744 Q 49.4564 -5.616 49.4564 -8.2836 Q 49.4564 -10.3896 48.3332 -11.6532 Q 47.21 -12.9168 45.3848 -13.6656 Q 43.5596 -14.4144 41.3834 -14.9292 Q 39.2072 -15.444 37.031 -16.029 Q 34.8548 -16.614 33.0296 -17.55 Q 31.2044 -18.486 30.1046 -20.1006 Q 29.0048 -21.7152 29.0048 -24.2892 Q 29.0048 -26.6292 30.2216 -28.5948 Q 31.4384 -30.5604 34.0124 -31.7772 Q 36.5864 -32.994 40.6112 -32.994 Q 43.3256 -32.994 45.9698 -32.1984 Q 48.614 -31.4028 50.486 -30.0456 L 49.5968 -28.1268 Q 47.5376 -29.5308 45.1742 -30.2094 Q 42.8108 -30.888 40.6112 -30.888 Q 35.8376 -30.888 33.6146 -28.9692 Q 31.3916 -27.0504 31.3916 -24.336 Q 31.3916 -22.23 32.4914 -20.9664 Q 33.5912 -19.7028 35.4164 -18.954 Q 37.2416 -18.2052 39.4178 -17.6904 Q 41.594 -17.1756 43.7702 -16.5906 Q 45.9464 -16.0056 47.7716 -15.0696 Q 49.5968 -14.1336 50.72 -12.5424 Q 51.8432 -10.9512 51.8432 -8.424 Q 51.8432 -6.084 50.5796 -4.1184 Q 49.316 -2.1528 46.7186 -0.9594 Q 44.1212 0.234 40.0496 0.234 Z M 76.5892 0.234 Q 72.9388 0.234 69.8266 -1.0062 Q 66.7144 -2.2464 64.3978 -4.4928 Q 62.0812 -6.7392 60.8176 -9.7812 Q 59.554 -12.8232 59.554 -16.38 Q 59.554 -19.9368 60.8176 -22.9788 Q 62.0812 -26.0208 64.3978 -28.2672 Q 66.7144 -30.5136 69.8266 -31.7538 Q 72.9388 -32.994 76.5892 -32.994 Q 80.2396 -32.994 83.3518 -31.7538 Q 86.464 -30.5136 88.7572 -28.2672 Q 91.0504 -26.0208 92.3374 -22.9788 Q 93.6244 -19.9368 93.6244 -16.38 Q 93.6244 -12.8232 92.3374 -9.7812 Q 91.0504 -6.7392 88.7572 -4.4928 Q 86.464 -2.2464 83.3518 -1.0062 Q 80.2396 0.234 76.5892 0.234 Z M 76.5892 -1.9656 Q 80.7544 -1.9656 84.0538 -3.8376 Q 87.3532 -5.7096 89.272 -8.9856 Q 91.1908 -12.2616 91.1908 -16.38 Q 91.1908 -20.4984 89.272 -23.7744 Q 87.3532 -27.0504 84.0538 -28.9224 Q 80.7544 -30.7944 76.5892 -30.7944 Q 72.424 -30.7944 69.1012 -28.9224 Q 65.7784 -27.0504 63.8596 -23.7744 Q 61.9408 -20.4984 61.9408 -16.38 Q 61.9408 -12.2616 63.8596 -8.9856 Q 65.7784 -5.7096 69.1012 -3.8376 Q 72.424 -1.9656 76.5892 -1.9656 Z M 104.658 0 L 104.658 -32.76 L 106.6704 -32.76 L 128.9472 -4.3524 L 128.9472 -32.76 L 131.334 -32.76 L 131.334 0 L 129.3684 0 L 107.0448 -28.4076 L 107.0448 0 L 104.658 0 Z M 160.2808 0 L 160.2808 -32.76 L 172.0276 -32.76 Q 178.2052 -32.76 181.7152 -29.835 Q 185.2252 -26.91 185.2252 -21.7152 Q 185.2252 -16.5672 181.7152 -13.6422 Q 178.2052 -10.7172 172.0276 -10.7172 L 162.6676 -10.7172 L 162.6676 0 L 160.2808 0 Z M 162.6676 -12.87 L 172.0276 -12.87 Q 177.316 -12.87 180.0538 -15.1866 Q 182.7916 -17.5032 182.7916 -21.7152 Q 182.7916 -25.974 180.0538 -28.2906 Q 177.316 -30.6072 172.0276 -30.6072 L 162.6676 -30.6072 L 162.6676 -12.87 Z M 191.0172 0 L 206.0868 -32.76 L 208.4736 -32.76 L 223.5432 0 L 220.9692 0 L 216.804 -9.2196 L 197.7564 -9.2196 L 193.5912 0 L 191.0172 0 Z M 198.6924 -11.232 L 215.868 -11.232 L 207.2568 -30.1392 L 198.6924 -11.232 Z M 238.508 0 L 238.508 -30.6072 L 226.7144 -30.6072 L 226.7144 -32.76 L 252.6884 -32.76 L 252.6884 -30.6072 L 240.8948 -30.6072 L 240.8948 0 L 238.508 0 Z M 275.188 0.234 Q 271.5376 0.234 268.4488 -1.0062 Q 265.36 -2.2464 263.0434 -4.4928 Q 260.7268 -6.7392 259.4632 -9.7812 Q 258.1996 -12.8232 258.1996 -16.38 Q 258.1996 -19.9836 259.4632 -23.0022 Q 260.7268 -26.0208 263.0434 -28.2672 Q 265.36 -30.5136 268.4488 -31.7538 Q 271.5376 -32.994 275.188 -32.994 Q 278.6512 -32.994 281.6698 -31.8708 Q 284.6884 -30.7476 286.8412 -28.4544 L 285.3436 -26.91 Q 283.2376 -28.9692 280.687 -29.8818 Q 278.1364 -30.7944 275.2816 -30.7944 Q 271.0696 -30.7944 267.7468 -28.899 Q 264.424 -27.0036 262.5052 -23.751 Q 260.5864 -20.4984 260.5864 -16.38 Q 260.5864 -12.2616 262.5052 -9.009 Q 264.424 -5.7564 267.7468 -3.861 Q 271.0696 -1.9656 275.2816 -1.9656 Q 278.1364 -1.9656 280.687 -2.9016 Q 283.2376 -3.8376 285.3436 -5.8968 L 286.8412 -4.3524 Q 284.6884 -2.0592 281.6698 -0.9126 Q 278.6512 0.234 275.188 0.234 Z M 321.4152 0 L 321.4152 -15.5844 L 299.5128 -15.5844 L 299.5128 0 L 297.126 0 L 297.126 -32.76 L 299.5128 -32.76 L 299.5128 -17.6904 L 321.4152 -17.6904 L 321.4152 -32.76 L 323.802 -32.76 L 323.802 0 L 321.4152 0 Z"/>
    <g id="command" transform="translate(1102.47 95.475)">
    <path fill="#a6abbd" d="M 7.084 0.23 Q 4.784 0.23 3.404 -1.058 Q 2.024 -2.346 2.024 -4.6 L 2.024 -8.05 Q 2.024 -10.304 3.404 -11.592 Q 4.784 -12.88 7.084 -12.88 Q 9.269 -12.88 10.6145 -11.707 Q 11.96 -10.534 12.029 -8.51 L 9.959 -8.51 Q 9.89 -9.729 9.131 -10.3845 Q 8.372 -11.04 7.084 -11.04 Q 5.727 -11.04 4.9105 -10.2695 Q 4.094 -9.499 4.094 -8.073 L 4.094 -4.6 Q 4.094 -3.174 4.9105 -2.392 Q 5.727 -1.61 7.084 -1.61 Q 8.372 -1.61 9.131 -2.277 Q 9.89 -2.944 9.959 -4.14 L 12.029 -4.14 Q 11.96 -2.116 10.6145 -0.943 Q 9.269 0.23 7.084 0.23 Z M 20.7 0.184 Q 18.423 0.184 17.0775 -1.15 Q 15.732 -2.484 15.732 -4.876 L 15.732 -7.774 Q 15.732 -10.189 17.066 -11.5115 Q 18.4 -12.834 20.7 -12.834 Q 23 -12.834 24.334 -11.5115 Q 25.668 -10.189 25.668 -7.774 L 25.668 -4.876 Q 25.668 -2.484 24.3225 -1.15 Q 22.977 0.184 20.7 0.184 Z M 20.7 -1.656 Q 22.057 -1.656 22.8275 -2.415 Q 23.598 -3.174 23.598 -4.646 L 23.598 -8.004 Q 23.598 -9.476 22.8275 -10.235 Q 22.057 -10.994 20.7 -10.994 Q 19.366 -10.994 18.584 -10.235 Q 17.802 -9.476 17.802 -8.004 L 17.802 -4.646 Q 17.802 -3.174 18.584 -2.415 Q 19.366 -1.656 20.7 -1.656 Z M 28.98 0 L 28.98 -12.65 L 30.774 -12.65 L 30.774 -10.971 L 30.82 -10.971 Q 30.935 -11.822 31.4985 -12.351 Q 32.062 -12.88 32.936 -12.88 Q 33.764 -12.88 34.339 -12.397 Q 34.914 -11.914 35.167 -11.086 L 35.19 -11.086 Q 35.351 -11.914 35.9145 -12.397 Q 36.478 -12.88 37.352 -12.88 Q 38.571 -12.88 39.2955 -11.9715 Q 40.02 -11.063 40.02 -9.614 L 40.02 0 L 38.088 0 L 38.088 -9.637 Q 38.088 -10.396 37.72 -10.8445 Q 37.352 -11.293 36.708 -11.293 Q 36.087 -11.293 35.719 -10.856 Q 35.351 -10.419 35.351 -9.66 L 35.351 0 L 33.649 0 L 33.649 -9.637 Q 33.649 -10.396 33.281 -10.8445 Q 32.913 -11.293 32.292 -11.293 Q 31.648 -11.293 31.28 -10.856 Q 30.912 -10.419 30.912 -9.66 L 30.912 0 L 28.98 0 Z M 43.516 4.14 L 43.516 -12.65 L 45.586 -12.65 L 45.586 -10.235 L 45.609 -10.235 Q 45.77 -11.477 46.69 -12.1785 Q 47.61 -12.88 49.036 -12.88 Q 50.945 -12.88 52.072 -11.6265 Q 53.199 -10.373 53.199 -8.188 L 53.199 -4.485 Q 53.199 -2.3 52.072 -1.035 Q 50.945 0.23 49.036 0.23 Q 47.61 0.23 46.69 -0.483 Q 45.77 -1.196 45.609 -2.415 L 45.54 -2.415 L 45.586 0.46 L 45.586 4.14 L 43.516 4.14 Z M 48.346 -1.564 Q 49.657 -1.564 50.393 -2.254 Q 51.129 -2.944 51.129 -4.485 L 51.129 -8.165 Q 51.129 -9.729 50.393 -10.4075 Q 49.657 -11.086 48.346 -11.086 Q 47.081 -11.086 46.3335 -10.281 Q 45.586 -9.476 45.586 -8.05 L 45.586 -4.6 Q 45.586 -3.174 46.3335 -2.369 Q 47.081 -1.564 48.346 -1.564 Z M 62.1 0.184 Q 59.823 0.184 58.4775 -1.15 Q 57.132 -2.484 57.132 -4.876 L 57.132 -7.774 Q 57.132 -10.189 58.466 -11.5115 Q 59.8 -12.834 62.1 -12.834 Q 64.4 -12.834 65.734 -11.5115 Q 67.068 -10.189 67.068 -7.774 L 67.068 -4.876 Q 67.068 -2.484 65.7225 -1.15 Q 64.377 0.184 62.1 0.184 Z M 62.1 -1.656 Q 63.457 -1.656 64.2275 -2.415 Q 64.998 -3.174 64.998 -4.646 L 64.998 -8.004 Q 64.998 -9.476 64.2275 -10.235 Q 63.457 -10.994 62.1 -10.994 Q 60.766 -10.994 59.984 -10.235 Q 59.202 -9.476 59.202 -8.004 L 59.202 -4.646 Q 59.202 -3.174 59.984 -2.415 Q 60.766 -1.656 62.1 -1.656 Z M 75.394 0.184 Q 73.278 0.184 72.1165 -0.7705 Q 70.955 -1.725 70.955 -3.473 L 73.025 -3.473 Q 73.025 -2.599 73.646 -2.1045 Q 74.267 -1.61 75.394 -1.61 L 76.406 -1.61 Q 77.556 -1.61 78.1885 -2.116 Q 78.821 -2.622 78.821 -3.542 Q 78.821 -5.175 77.326 -5.382 L 73.83 -5.888 Q 72.542 -6.072 71.829 -6.9575 Q 71.116 -7.843 71.116 -9.292 Q 71.116 -10.948 72.2545 -11.891 Q 73.393 -12.834 75.394 -12.834 L 76.406 -12.834 Q 78.246 -12.834 79.4075 -11.9255 Q 80.569 -11.017 80.661 -9.545 L 78.568 -9.545 Q 78.522 -10.212 77.9355 -10.649 Q 77.349 -11.086 76.406 -11.086 L 75.394 -11.086 Q 74.336 -11.086 73.738 -10.603 Q 73.14 -10.12 73.14 -9.292 Q 73.14 -7.958 74.359 -7.774 L 77.625 -7.314 Q 80.845 -6.854 80.845 -3.542 Q 80.845 -1.771 79.6835 -0.7935 Q 78.522 0.184 76.406 0.184 L 75.394 0.184 Z M 89.7 0.23 Q 87.469 0.23 86.1005 -1.1155 Q 84.732 -2.461 84.732 -4.83 L 84.732 -7.82 Q 84.732 -10.189 86.1005 -11.5345 Q 87.469 -12.88 89.7 -12.88 Q 91.195 -12.88 92.3105 -12.282 Q 93.426 -11.684 94.047 -10.603 Q 94.668 -9.522 94.668 -8.05 L 94.668 -5.796 L 86.756 -5.796 L 86.756 -4.6 Q 86.756 -3.197 87.561 -2.3805 Q 88.366 -1.564 89.7 -1.564 Q 90.85 -1.564 91.5975 -2.0125 Q 92.345 -2.461 92.506 -3.22 L 94.576 -3.22 Q 94.369 -1.633 93.035 -0.7015 Q 91.701 0.23 89.7 0.23 Z M 86.756 -7.406 L 92.644 -7.406 L 92.644 -8.05 Q 92.644 -9.545 91.8735 -10.3615 Q 91.103 -11.178 89.7 -11.178 Q 88.297 -11.178 87.5265 -10.3615 Q 86.756 -9.545 86.756 -8.05 L 86.756 -7.406 Z M 99.176 0 L 99.176 -12.65 L 101.246 -12.65 L 101.246 -10.235 L 101.292 -10.235 Q 101.453 -11.454 102.327 -12.167 Q 103.201 -12.88 104.673 -12.88 Q 106.651 -12.88 107.7205 -11.6955 Q 108.79 -10.511 108.79 -8.326 L 108.79 -7.245 L 106.72 -7.245 L 106.72 -8.326 Q 106.72 -11.086 104.029 -11.086 Q 102.672 -11.086 101.959 -10.304 Q 101.246 -9.522 101.246 -8.05 L 101.246 0 L 99.176 0 Z M 126.776 0 L 126.776 -12.65 L 128.846 -12.65 L 128.846 -10.235 L 128.892 -10.235 Q 129.053 -11.454 129.927 -12.167 Q 130.801 -12.88 132.273 -12.88 Q 134.251 -12.88 135.3205 -11.6955 Q 136.39 -10.511 136.39 -8.326 L 136.39 -7.245 L 134.32 -7.245 L 134.32 -8.326 Q 134.32 -11.086 131.629 -11.086 Q 130.272 -11.086 129.559 -10.304 Q 128.846 -9.522 128.846 -8.05 L 128.846 0 L 126.776 0 Z M 144.9 0.23 Q 142.669 0.23 141.3005 -1.1155 Q 139.932 -2.461 139.932 -4.83 L 139.932 -7.82 Q 139.932 -10.189 141.3005 -11.5345 Q 142.669 -12.88 144.9 -12.88 Q 146.395 -12.88 147.5105 -12.282 Q 148.626 -11.684 149.247 -10.603 Q 149.868 -9.522 149.868 -8.05 L 149.868 -5.796 L 141.956 -5.796 L 141.956 -4.6 Q 141.956 -3.197 142.761 -2.3805 Q 143.566 -1.564 144.9 -1.564 Q 146.05 -1.564 146.7975 -2.0125 Q 147.545 -2.461 147.706 -3.22 L 149.776 -3.22 Q 149.569 -1.633 148.235 -0.7015 Q 146.901 0.23 144.9 0.23 Z M 141.956 -7.406 L 147.844 -7.406 L 147.844 -8.05 Q 147.844 -9.545 147.0735 -10.3615 Q 146.303 -11.178 144.9 -11.178 Q 143.497 -11.178 142.7265 -10.3615 Q 141.956 -9.545 141.956 -8.05 L 141.956 -7.406 Z M 161.414 4.14 L 161.414 0.46 L 161.46 -2.415 L 161.391 -2.415 Q 161.23 -1.196 160.31 -0.483 Q 159.39 0.23 157.964 0.23 Q 156.055 0.23 154.928 -1.035 Q 153.801 -2.3 153.801 -4.485 L 153.801 -8.188 Q 153.801 -10.373 154.9395 -11.6265 Q 156.078 -12.88 157.964 -12.88 Q 159.39 -12.88 160.31 -12.1785 Q 161.23 -11.477 161.391 -10.235 L 161.414 -10.235 L 161.414 -12.65 L 163.484 -12.65 L 163.484 4.14 L 161.414 4.14 Z M 158.654 -1.564 Q 159.942 -1.564 160.678 -2.369 Q 161.414 -3.174 161.414 -4.6 L 161.414 -8.05 Q 161.414 -9.476 160.678 -10.281 Q 159.942 -11.086 158.654 -11.086 Q 157.343 -11.086 156.607 -10.419 Q 155.871 -9.752 155.871 -8.28 L 155.871 -4.37 Q 155.871 -2.898 156.607 -2.231 Q 157.343 -1.564 158.654 -1.564 Z M 172.477 0.23 Q 170.292 0.23 168.981 -1.0695 Q 167.67 -2.369 167.67 -4.6 L 167.67 -12.65 L 169.74 -12.65 L 169.74 -4.6 Q 169.74 -3.22 170.476 -2.4035 Q 171.212 -1.587 172.477 -1.587 Q 173.765 -1.587 174.5125 -2.4035 Q 175.26 -3.22 175.26 -4.6 L 175.26 -12.65 L 177.33 -12.65 L 177.33 -4.6 Q 177.33 -2.369 175.996 -1.0695 Q 174.662 0.23 172.477 0.23 Z M 181.355 0 L 181.355 -1.886 L 185.84 -1.886 L 185.84 -10.764 L 181.815 -10.764 L 181.815 -12.65 L 187.91 -12.65 L 187.91 -1.886 L 192.165 -1.886 L 192.165 0 L 181.355 0 Z M 186.645 -14.927 Q 185.886 -14.927 185.449 -15.318 Q 185.012 -15.709 185.012 -16.376 Q 185.012 -17.066 185.449 -17.4685 Q 185.886 -17.871 186.645 -17.871 Q 187.404 -17.871 187.841 -17.4685 Q 188.278 -17.066 188.278 -16.376 Q 188.278 -15.709 187.841 -15.318 Q 187.404 -14.927 186.645 -14.927 Z M 195.776 0 L 195.776 -12.65 L 197.846 -12.65 L 197.846 -10.235 L 197.892 -10.235 Q 198.053 -11.454 198.927 -12.167 Q 199.801 -12.88 201.273 -12.88 Q 203.251 -12.88 204.3205 -11.6955 Q 205.39 -10.511 205.39 -8.326 L 205.39 -7.245 L 203.32 -7.245 L 203.32 -8.326 Q 203.32 -11.086 200.629 -11.086 Q 199.272 -11.086 198.559 -10.304 Q 197.846 -9.522 197.846 -8.05 L 197.846 0 L 195.776 0 Z M 213.9 0.23 Q 211.669 0.23 210.3005 -1.1155 Q 208.932 -2.461 208.932 -4.83 L 208.932 -7.82 Q 208.932 -10.189 210.3005 -11.5345 Q 211.669 -12.88 213.9 -12.88 Q 215.395 -12.88 216.5105 -12.282 Q 217.626 -11.684 218.247 -10.603 Q 218.868 -9.522 218.868 -8.05 L 218.868 -5.796 L 210.956 -5.796 L 210.956 -4.6 Q 210.956 -3.197 211.761 -2.3805 Q 212.566 -1.564 213.9 -1.564 Q 215.05 -1.564 215.7975 -2.0125 Q 216.545 -2.461 216.706 -3.22 L 218.776 -3.22 Q 218.569 -1.633 217.235 -0.7015 Q 215.901 0.23 213.9 0.23 Z M 210.956 -7.406 L 216.844 -7.406 L 216.844 -8.05 Q 216.844 -9.545 216.0735 -10.3615 Q 215.303 -11.178 213.9 -11.178 Q 212.497 -11.178 211.7265 -10.3615 Q 210.956 -9.545 210.956 -8.05 L 210.956 -7.406 Z"/>
    <path fill="#f7f5f0" d="M 240.396 0.23 Q 238.441 0.23 237.291 -0.8625 Q 236.141 -1.955 236.141 -3.726 Q 236.141 -4.899 236.67 -5.773 Q 237.199 -6.647 238.142 -7.1415 Q 239.085 -7.636 240.304 -7.636 L 244.214 -7.636 L 244.214 -8.625 Q 244.214 -11.086 241.523 -11.086 Q 240.327 -11.086 239.591 -10.649 Q 238.855 -10.212 238.809 -9.43 L 236.739 -9.43 Q 236.854 -10.925 238.1305 -11.9025 Q 239.407 -12.88 241.523 -12.88 Q 243.823 -12.88 245.0535 -11.776 Q 246.284 -10.672 246.284 -8.694 L 246.284 0 L 244.237 0 L 244.237 -2.3 L 244.191 -2.3 Q 244.007 -1.127 243.018 -0.4485 Q 242.029 0.23 240.396 0.23 Z M 240.902 -1.518 Q 242.42 -1.518 243.317 -2.254 Q 244.214 -2.99 244.214 -4.255 L 244.214 -6.026 L 240.534 -6.026 Q 239.522 -6.026 238.8895 -5.4165 Q 238.257 -4.807 238.257 -3.795 Q 238.257 -2.737 238.9585 -2.1275 Q 239.66 -1.518 240.902 -1.518 Z M 257.14 0 Q 255.461 0 254.4605 -0.9775 Q 253.46 -1.955 253.46 -3.565 L 253.46 -14.904 L 249.09 -14.904 L 249.09 -16.79 L 255.53 -16.79 L 255.53 -3.565 Q 255.53 -2.783 255.967 -2.3345 Q 256.404 -1.886 257.14 -1.886 L 261.05 -1.886 L 261.05 0 L 257.14 0 Z M 270.365 0 Q 268.801 0 267.858 -0.9085 Q 266.915 -1.817 266.915 -3.335 L 266.915 -10.764 L 263.281 -10.764 L 263.281 -12.65 L 266.915 -12.65 L 266.915 -16.215 L 268.985 -16.215 L 268.985 -12.65 L 274.16 -12.65 L 274.16 -10.764 L 268.985 -10.764 L 268.985 -3.335 Q 268.985 -2.691 269.3645 -2.2885 Q 269.744 -1.886 270.365 -1.886 L 274.045 -1.886 L 274.045 0 L 270.365 0 Z M 282.9 0.184 Q 280.623 0.184 279.2775 -1.15 Q 277.932 -2.484 277.932 -4.876 L 277.932 -7.774 Q 277.932 -10.189 279.266 -11.5115 Q 280.6 -12.834 282.9 -12.834 Q 285.2 -12.834 286.534 -11.5115 Q 287.868 -10.189 287.868 -7.774 L 287.868 -4.876 Q 287.868 -2.484 286.5225 -1.15 Q 285.177 0.184 282.9 0.184 Z M 282.9 -1.656 Q 284.257 -1.656 285.0275 -2.415 Q 285.798 -3.174 285.798 -4.646 L 285.798 -8.004 Q 285.798 -9.476 285.0275 -10.235 Q 284.257 -10.994 282.9 -10.994 Q 281.566 -10.994 280.784 -10.235 Q 280.002 -9.476 280.002 -8.004 L 280.002 -4.646 Q 280.002 -3.174 280.784 -2.415 Q 281.566 -1.656 282.9 -1.656 Z M 291.525 2.53 L 299.69 -19.09 L 301.875 -19.09 L 293.71 2.53 L 291.525 2.53 Z"/>
    <path fill="#27bdff" d="M 305.67 4.14 L 305.67 2.254 L 308.522 2.254 Q 309.948 2.254 310.7415 1.472 Q 311.535 0.69 311.535 -0.713 L 311.535 -10.764 L 305.555 -10.764 L 305.555 -12.65 L 313.605 -12.65 L 313.605 -0.713 Q 313.605 1.518 312.225 2.829 Q 310.845 4.14 308.522 4.14 L 305.67 4.14 Z M 312.34 -14.927 Q 311.581 -14.927 311.144 -15.318 Q 310.707 -15.709 310.707 -16.376 Q 310.707 -17.066 311.144 -17.4685 Q 311.581 -17.871 312.34 -17.871 Q 313.099 -17.871 313.536 -17.4685 Q 313.973 -17.066 313.973 -16.376 Q 313.973 -15.709 313.536 -15.318 Q 313.099 -14.927 312.34 -14.927 Z M 323.794 0.184 Q 321.678 0.184 320.5165 -0.7705 Q 319.355 -1.725 319.355 -3.473 L 321.425 -3.473 Q 321.425 -2.599 322.046 -2.1045 Q 322.667 -1.61 323.794 -1.61 L 324.806 -1.61 Q 325.956 -1.61 326.5885 -2.116 Q 327.221 -2.622 327.221 -3.542 Q 327.221 -5.175 325.726 -5.382 L 322.23 -5.888 Q 320.942 -6.072 320.229 -6.9575 Q 319.516 -7.843 319.516 -9.292 Q 319.516 -10.948 320.6545 -11.891 Q 321.793 -12.834 323.794 -12.834 L 324.806 -12.834 Q 326.646 -12.834 327.8075 -11.9255 Q 328.969 -11.017 329.061 -9.545 L 326.968 -9.545 Q 326.922 -10.212 326.3355 -10.649 Q 325.749 -11.086 324.806 -11.086 L 323.794 -11.086 Q 322.736 -11.086 322.138 -10.603 Q 321.54 -10.12 321.54 -9.292 Q 321.54 -7.958 322.759 -7.774 L 326.025 -7.314 Q 329.245 -6.854 329.245 -3.542 Q 329.245 -1.771 328.0835 -0.7935 Q 326.922 0.184 324.806 0.184 L 323.794 0.184 Z M 338.1 0.184 Q 335.823 0.184 334.4775 -1.15 Q 333.132 -2.484 333.132 -4.876 L 333.132 -7.774 Q 333.132 -10.189 334.466 -11.5115 Q 335.8 -12.834 338.1 -12.834 Q 340.4 -12.834 341.734 -11.5115 Q 343.068 -10.189 343.068 -7.774 L 343.068 -4.876 Q 343.068 -2.484 341.7225 -1.15 Q 340.377 0.184 338.1 0.184 Z M 338.1 -1.656 Q 339.457 -1.656 340.2275 -2.415 Q 340.998 -3.174 340.998 -4.646 L 340.998 -8.004 Q 340.998 -9.476 340.2275 -10.235 Q 339.457 -10.994 338.1 -10.994 Q 336.766 -10.994 335.984 -10.235 Q 335.202 -9.476 335.202 -8.004 L 335.202 -4.646 Q 335.202 -3.174 335.984 -2.415 Q 336.766 -1.656 338.1 -1.656 Z M 347.116 0 L 347.116 -12.65 L 349.186 -12.65 L 349.186 -10.235 L 349.209 -10.235 Q 349.37 -11.5 350.244 -12.19 Q 351.118 -12.88 352.567 -12.88 Q 354.476 -12.88 355.603 -11.707 Q 356.73 -10.534 356.73 -8.51 L 356.73 0 L 354.66 0 L 354.66 -8.142 Q 354.66 -9.591 353.9355 -10.3615 Q 353.211 -11.132 351.969 -11.132 Q 350.681 -11.132 349.9335 -10.327 Q 349.186 -9.522 349.186 -8.05 L 349.186 0 L 347.116 0 Z M 362.02 -6.67 L 362.02 -8.51 L 369.38 -8.51 L 369.38 -6.67 L 362.02 -6.67 Z M 374.716 4.14 L 374.716 -12.65 L 376.786 -12.65 L 376.786 -10.235 L 376.809 -10.235 Q 376.97 -11.477 377.89 -12.1785 Q 378.81 -12.88 380.236 -12.88 Q 382.145 -12.88 383.272 -11.6265 Q 384.399 -10.373 384.399 -8.188 L 384.399 -4.485 Q 384.399 -2.3 383.272 -1.035 Q 382.145 0.23 380.236 0.23 Q 378.81 0.23 377.89 -0.483 Q 376.97 -1.196 376.809 -2.415 L 376.74 -2.415 L 376.786 0.46 L 376.786 4.14 L 374.716 4.14 Z M 379.546 -1.564 Q 380.857 -1.564 381.593 -2.254 Q 382.329 -2.944 382.329 -4.485 L 382.329 -8.165 Q 382.329 -9.729 381.593 -10.4075 Q 380.857 -11.086 379.546 -11.086 Q 378.281 -11.086 377.5335 -10.281 Q 376.786 -9.476 376.786 -8.05 L 376.786 -4.6 Q 376.786 -3.174 377.5335 -2.369 Q 378.281 -1.564 379.546 -1.564 Z M 392.196 0.23 Q 390.241 0.23 389.091 -0.8625 Q 387.941 -1.955 387.941 -3.726 Q 387.941 -4.899 388.47 -5.773 Q 388.999 -6.647 389.942 -7.1415 Q 390.885 -7.636 392.104 -7.636 L 396.014 -7.636 L 396.014 -8.625 Q 396.014 -11.086 393.323 -11.086 Q 392.127 -11.086 391.391 -10.649 Q 390.655 -10.212 390.609 -9.43 L 388.539 -9.43 Q 388.654 -10.925 389.9305 -11.9025 Q 391.207 -12.88 393.323 -12.88 Q 395.623 -12.88 396.8535 -11.776 Q 398.084 -10.672 398.084 -8.694 L 398.084 0 L 396.037 0 L 396.037 -2.3 L 395.991 -2.3 Q 395.807 -1.127 394.818 -0.4485 Q 393.829 0.23 392.196 0.23 Z M 392.702 -1.518 Q 394.22 -1.518 395.117 -2.254 Q 396.014 -2.99 396.014 -4.255 L 396.014 -6.026 L 392.334 -6.026 Q 391.322 -6.026 390.6895 -5.4165 Q 390.057 -4.807 390.057 -3.795 Q 390.057 -2.737 390.7585 -2.1275 Q 391.46 -1.518 392.702 -1.518 Z M 408.365 0 Q 406.801 0 405.858 -0.9085 Q 404.915 -1.817 404.915 -3.335 L 404.915 -10.764 L 401.281 -10.764 L 401.281 -12.65 L 404.915 -12.65 L 404.915 -16.215 L 406.985 -16.215 L 406.985 -12.65 L 412.16 -12.65 L 412.16 -10.764 L 406.985 -10.764 L 406.985 -3.335 Q 406.985 -2.691 407.3645 -2.2885 Q 407.744 -1.886 408.365 -1.886 L 412.045 -1.886 L 412.045 0 L 408.365 0 Z M 421.084 0.23 Q 418.784 0.23 417.404 -1.058 Q 416.024 -2.346 416.024 -4.6 L 416.024 -8.05 Q 416.024 -10.304 417.404 -11.592 Q 418.784 -12.88 421.084 -12.88 Q 423.269 -12.88 424.6145 -11.707 Q 425.96 -10.534 426.029 -8.51 L 423.959 -8.51 Q 423.89 -9.729 423.131 -10.3845 Q 422.372 -11.04 421.084 -11.04 Q 419.727 -11.04 418.9105 -10.2695 Q 418.094 -9.499 418.094 -8.073 L 418.094 -4.6 Q 418.094 -3.174 418.9105 -2.392 Q 419.727 -1.61 421.084 -1.61 Q 422.372 -1.61 423.131 -2.277 Q 423.89 -2.944 423.959 -4.14 L 426.029 -4.14 Q 425.96 -2.116 424.6145 -0.943 Q 423.269 0.23 421.084 0.23 Z M 429.916 0 L 429.916 -16.79 L 431.986 -16.79 L 431.986 -10.235 L 432.009 -10.235 Q 432.17 -11.5 433.044 -12.19 Q 433.918 -12.88 435.367 -12.88 Q 437.276 -12.88 438.403 -11.707 Q 439.53 -10.534 439.53 -8.51 L 439.53 0 L 437.46 0 L 437.46 -8.165 Q 437.46 -9.591 436.7355 -10.3615 Q 436.011 -11.132 434.769 -11.132 Q 433.481 -11.132 432.7335 -10.327 Q 431.986 -9.522 431.986 -8.05 L 431.986 0 L 429.916 0 Z"/>
    </g>
  </g>
</svg>
